<?xml version="1.0" encoding="utf-8" ?>
<svg baseProfile="full" height="1200mm" version="1.1" viewBox="0 0 12 12" width="1200mm" xmlns="http://www.w3.org/2000/svg" xmlns:ev="http://www.w3.org/2001/xml-events" xmlns:xlink="http://www.w3.org/1999/xlink">
  <defs/>
  <g fill="black" stroke="none">
    <rect height="1" width="1" x="2" y="2"/>
    <rect height="1" width="1" x="3" y="2"/>
    <rect height="1" width="1" x="4" y="2"/>
    <rect height="1" width="1" x="5" y="2"/>
    <rect height="1" width="1" x="6" y="2"/>
    <rect height="1" width="1" x="7" y="2"/>
    <rect height="1" width="1" x="8" y="2"/>
    <rect height="1" width="1" x="9" y="2"/>
    <rect height="1" width="1" x="2" y="3"/>
    <rect height="1" width="1" x="3" y="3"/>
    <rect height="1" width="1" x="6" y="3"/>
    <rect height="1" width="1" x="8" y="3"/>
    <rect height="1" width="1" x="9" y="3"/>
    <rect height="1" width="1" x="2" y="4"/>
    <rect height="1" width="1" x="8" y="4"/>
    <rect height="1" width="1" x="9" y="4"/>
    <rect height="1" width="1" x="2" y="5"/>
    <rect height="1" width="1" x="3" y="5"/>
    <rect height="1" width="1" x="5" y="5"/>
    <rect height="1" width="1" x="6" y="5"/>
    <rect height="1" width="1" x="8" y="5"/>
    <rect height="1" width="1" x="9" y="5"/>
    <rect height="1" width="1" x="2" y="6"/>
    <rect height="1" width="1" x="4" y="6"/>
    <rect height="1" width="1" x="5" y="6"/>
    <rect height="1" width="1" x="9" y="6"/>
    <rect height="1" width="1" x="2" y="7"/>
    <rect height="1" width="1" x="3" y="7"/>
    <rect height="1" width="1" x="4" y="7"/>
    <rect height="1" width="1" x="6" y="7"/>
    <rect height="1" width="1" x="7" y="7"/>
    <rect height="1" width="1" x="8" y="7"/>
    <rect height="1" width="1" x="9" y="7"/>
    <rect height="1" width="1" x="2" y="8"/>
    <rect height="1" width="1" x="3" y="8"/>
    <rect height="1" width="1" x="5" y="8"/>
    <rect height="1" width="1" x="6" y="8"/>
    <rect height="1" width="1" x="7" y="8"/>
    <rect height="1" width="1" x="9" y="8"/>
    <rect height="1" width="1" x="2" y="9"/>
    <rect height="1" width="1" x="3" y="9"/>
    <rect height="1" width="1" x="4" y="9"/>
    <rect height="1" width="1" x="5" y="9"/>
    <rect height="1" width="1" x="6" y="9"/>
    <rect height="1" width="1" x="7" y="9"/>
    <rect height="1" width="1" x="8" y="9"/>
    <rect height="1" width="1" x="9" y="9"/>
  </g>
</svg>
